<?xml version="1.0" standalone="no"?>
<!DOCTYPE svg PUBLIC "-//W3C//DTD SVG 20010904//EN"
 "http://www.w3.org/TR/2001/REC-SVG-20010904/DTD/svg10.dtd">
<svg version="1.0" xmlns="http://www.w3.org/2000/svg"
 width="247.000000pt" height="204.000000pt" viewBox="0 0 247.000000 204.000000"
 preserveAspectRatio="xMidYMid meet">

<g transform="translate(0.000000,204.000000) scale(0.100000,-0.100000)"
fill="#000000" stroke="none">
<path d="M325 1743 c-100 -270 -106 -282 -126 -288 -38 -12 -18 -25 41 -25 58
0 80 12 40 23 -25 6 -25 19 -1 82 l19 50 84 3 85 3 18 -60 c18 -60 15 -81 -11
-81 -8 0 -14 -4 -14 -10 0 -6 32 -10 75 -10 71 0 97 12 56 25 -21 6 -30 25
-112 248 -55 148 -64 167 -84 167 -20 0 -28 -16 -70 -127z m119 -100 c7 -22 5
-23 -63 -23 l-71 0 26 73 c50 136 42 132 74 47 15 -41 30 -85 34 -97z"/>
<path d="M650 1855 c0 -7 10 -15 23 -17 22 -3 22 -5 25 -190 l2 -188 -25 -6
c-14 -3 -25 -10 -25 -15 0 -6 66 -8 156 -7 l156 3 23 68 c27 77 14 92 -26 30
-31 -49 -80 -73 -146 -73 l-53 0 0 190 0 190 25 0 c14 0 25 6 25 13 0 9 -23
13 -80 14 -62 1 -80 -1 -80 -12z"/>
<path d="M1010 1854 c0 -8 8 -14 18 -14 13 0 38 -35 85 -118 65 -115 67 -120
67 -190 0 -68 -1 -72 -25 -78 -51 -13 -23 -24 60 -24 84 0 112 12 55 24 l-30
6 0 76 c0 77 0 78 66 191 48 82 71 113 85 113 10 0 19 7 19 15 0 12 -14 15
-65 15 -51 0 -65 -3 -65 -15 0 -8 9 -15 20 -15 12 0 20 -7 20 -16 0 -18 -91
-174 -101 -174 -7 0 -91 154 -97 176 -2 6 6 14 18 17 44 11 16 24 -55 24 -57
0 -75 -3 -75 -13z"/>
<path d="M1450 1858 c0 -4 6 -8 14 -8 8 0 22 -7 30 -16 13 -13 16 -44 16 -180
0 -172 -6 -204 -40 -204 -11 0 -20 -4 -20 -10 0 -6 36 -10 87 -10 86 0 93 3
51 24 -21 10 -23 20 -26 99 l-3 87 30 0 c25 0 40 -14 111 -105 l83 -105 113 0
c105 0 144 10 93 23 -24 7 -23 32 5 100 l16 37 75 0 c41 0 78 1 82 3 7 2 41
-89 42 -116 1 -11 -8 -21 -19 -24 -44 -12 -16 -23 55 -23 77 0 92 8 53 25 -22
10 -79 146 -148 352 -19 55 -24 61 -46 60 -23 -2 -31 -18 -98 -196 -47 -126
-81 -201 -95 -213 -36 -28 -75 -5 -154 92 l-69 84 47 11 c61 16 95 50 102 103
5 37 2 45 -28 75 -31 31 -42 35 -109 41 -93 9 -250 5 -250 -6z m280 -31 c52
-26 62 -95 20 -137 -17 -17 -34 -20 -105 -20 l-85 0 0 85 0 85 73 0 c39 0 83
-6 97 -13z m395 -104 c15 -43 29 -84 32 -90 3 -10 -14 -13 -67 -13 -59 0 -71
3 -67 14 3 8 18 49 33 90 15 42 30 76 34 76 5 0 20 -35 35 -77z"/>
<path d="M1477 1220 c8 -29 39 -45 47 -23 7 18 8 16 -21 32 -29 15 -32 14 -26
-9z"/>
<path d="M718 972 c-197 -197 -258 -263 -258 -282 0 -34 504 -540 538 -540 13
0 46 24 86 63 35 34 90 87 122 118 33 30 121 119 198 197 127 130 138 143 131
169 -4 17 -64 86 -156 180 -83 83 -152 153 -154 153 -2 1 -48 47 -102 101 -71
71 -106 99 -123 99 -19 0 -87 -63 -282 -258z m527 -42 l240 -240 -243 -243
-242 -242 -242 242 -243 243 240 240 c132 132 242 240 245 240 3 0 113 -108
245 -240z"/>
<path d="M1385 1200 c-10 -11 -15 -26 -11 -36 6 -15 8 -15 26 1 20 18 28 55
12 55 -5 0 -17 -9 -27 -20z"/>
<path d="M1567 1155 c-10 -23 29 -63 45 -47 10 10 7 18 -13 38 -23 22 -27 23
-32 9z"/>
<path d="M1290 1105 c-20 -22 -21 -25 -6 -31 21 -8 57 22 49 42 -7 20 -16 18
-43 -11z"/>
<path d="M1652 1067 c-17 -20 22 -57 40 -39 10 10 8 17 -8 33 -17 17 -22 18
-32 6z"/>
<path d="M1732 987 c-9 -11 -7 -19 12 -36 19 -18 25 -19 34 -8 9 11 7 19 -12
36 -19 18 -25 19 -34 8z"/>
<path d="M1815 899 c-4 -5 1 -19 11 -30 13 -15 20 -16 31 -8 11 10 11 15 -3
30 -19 22 -30 24 -39 8z"/>
<path d="M1902 817 c-16 -19 15 -47 41 -38 16 6 16 8 -6 29 -20 19 -26 20 -35
9z"/>
<path d="M1970 700 c0 -19 5 -30 14 -30 20 0 29 16 21 40 -10 32 -35 25 -35
-10z"/>
<path d="M1917 612 c-21 -22 -21 -32 -4 -32 18 0 49 34 40 43 -10 11 -19 8
-36 -11z"/>
<path d="M1835 530 c-12 -14 -15 -24 -9 -30 7 -7 17 -4 29 10 12 14 15 24 9
30 -7 7 -17 4 -29 -10z"/>
<path d="M1752 447 c-16 -17 -19 -26 -10 -35 8 -8 16 -5 31 14 27 34 8 52 -21
21z"/>
<path d="M1666 361 c-13 -15 -14 -20 -4 -29 10 -7 18 -4 30 13 14 19 15 24 4
28 -8 3 -21 -2 -30 -12z m15 -14 c-10 -9 -11 -8 -5 6 3 10 9 15 12 12 3 -3 0
-11 -7 -18z"/>
<path d="M1287 316 c-3 -8 5 -23 17 -35 20 -19 24 -20 36 -6 12 14 7 20 -15
15 -5 -1 -7 2 -3 6 8 8 -9 34 -22 34 -4 0 -10 -6 -13 -14z"/>
<path d="M1585 280 c-9 -10 -14 -24 -10 -29 9 -16 18 -13 37 13 14 20 15 25 4
29 -8 3 -22 -3 -31 -13z"/>
<path d="M1382 227 c-9 -11 -7 -19 12 -36 21 -20 24 -21 30 -5 4 11 0 25 -12
36 -16 16 -20 17 -30 5z"/>
<path d="M1503 202 c-16 -12 -20 -21 -13 -32 8 -13 13 -12 32 7 29 29 13 49
-19 25z"/>
</g>
</svg>
